<svg xmlns="http://www.w3.org/2000/svg" fill-rule="evenodd" stroke-linejoin="round" stroke-miterlimit="2" clip-rule="evenodd" viewBox="0 0 64 64" id="unsplash">
  <path fill="none" d="M0 0h64v64H0z"></path>
  <path fill="#738b95" d="M42 5a1 1 0 0 0-1-1H23a1 1 0 0 0-1 1v14a1 1 0 0 0 1 1h18a1 1 0 0 0 1-1V5zM22 43a1 1 0 0 0 1 1h18a1 1 0 0 0 1-1V29a.997.997 0 0 1 1-1h16a.997.997 0 0 1 1 1v30a1 1 0 0 1-1 1H5a1 1 0 0 1-1-1V29a.997.997 0 0 1 1-1h16a.997.997 0 0 1 1 1v14z"></path>
  <path fill="#617881" d="M24 4v13a1 1 0 0 0 1 1h17v1a1 1 0 0 1-1 1H23a1 1 0 0 1-1-1V5a1 1 0 0 1 1-1h1zM6 28v29a1 1 0 0 0 1 1h53v1a1 1 0 0 1-1 1H5a1 1 0 0 1-1-1V29a.997.997 0 0 1 1-1h1zm38 0v13a1 1 0 0 1-1 1h-1V29a.997.997 0 0 1 1-1h1z"></path>
  <path d="M42.5 5A1.5 1.5 0 0 0 41 3.5H23A1.5 1.5 0 0 0 21.5 5v14a1.5 1.5 0 0 0 1.5 1.5h18a1.5 1.5 0 0 0 1.5-1.5V5zm-1 0a.5.5 0 0 0-.5-.5H23a.5.5 0 0 0-.5.5v14a.5.5 0 0 0 .5.5h18a.5.5 0 0 0 .5-.5V5zm-19 38a.5.5 0 0 0 .5.5h18a.5.5 0 0 0 .5-.5V29a1.503 1.503 0 0 1 1.5-1.5h16a1.503 1.503 0 0 1 1.5 1.5v30a1.5 1.5 0 0 1-1.5 1.5H5A1.5 1.5 0 0 1 3.5 59V29A1.503 1.503 0 0 1 5 27.5h16a1.503 1.503 0 0 1 1.5 1.5v14zm-1 0a1.5 1.5 0 0 0 1.5 1.5h18a1.5 1.5 0 0 0 1.5-1.5V29c0-.133.053-.26.146-.354A.504.504 0 0 1 43 28.5h16c.133 0 .26.053.354.146A.504.504 0 0 1 59.5 29v30a.5.5 0 0 1-.5.5H5a.5.5 0 0 1-.5-.5V29c0-.133.053-.26.146-.354A.504.504 0 0 1 5 28.5h16c.133 0 .26.053.354.146A.504.504 0 0 1 21.5 29v14z"></path>
</svg>